<svg width="32" height="32" viewBox="0 0 32 32" fill="none" xmlns="http://www.w3.org/2000/svg">
<circle cx="16" cy="16" r="15.5" fill="#ECF1F0" fill-opacity="0.5" stroke="#050A09"/>
<path d="M9.59961 15.5C9.32347 15.5 9.09961 15.7239 9.09961 16C9.09961 16.2761 9.32347 16.5 9.59961 16.5V15.5ZM22.7532 16.3536C22.9484 16.1583 22.9484 15.8417 22.7532 15.6464L19.5712 12.4645C19.3759 12.2692 19.0593 12.2692 18.8641 12.4645C18.6688 12.6597 18.6688 12.9763 18.8641 13.1716L21.6925 16L18.8641 18.8284C18.6688 19.0237 18.6688 19.3403 18.8641 19.5355C19.0593 19.7308 19.3759 19.7308 19.5712 19.5355L22.7532 16.3536ZM9.59961 16.5H22.3996V15.5H9.59961V16.5Z" fill="#050A09"/>
</svg>
